<?xml version="1.0" standalone="no"?>
<!DOCTYPE svg PUBLIC "-//W3C//DTD SVG 20010904//EN"
 "http://www.w3.org/TR/2001/REC-SVG-20010904/DTD/svg10.dtd">
<svg version="1.0" xmlns="http://www.w3.org/2000/svg"
 width="300.000000pt" height="300.000000pt" viewBox="0 0 300.000000 300.000000"
 preserveAspectRatio="xMidYMid meet">
<metadata>
Created by potrace 1.11, written by Peter Selinger 2001-2013
</metadata>
<g transform="translate(0.000000,300.000000) scale(0.100000,-0.100000)"
fill="#000000" stroke="none">
<path d="M1350 2994 c-14 -2 -68 -12 -120 -20 -135 -23 -283 -74 -419 -144
-401 -208 -683 -581 -783 -1037 -29 -135 -32 -412 -4 -558 114 -611 565 -1072
1183 -1207 135 -29 412 -32 558 -4 609 114 1074 568 1206 1178 29 136 36 355
15 494 -52 353 -188 624 -432 867 -211 208 -462 344 -756 408 -90 19 -384 35
-448 23z m485 -589 c158 -44 318 -162 367 -271 29 -64 31 -173 4 -227 -63
-128 -259 -112 -310 26 -9 23 -20 74 -26 112 -33 219 -87 272 -267 263 -121
-6 -193 -39 -273 -125 -137 -146 -199 -373 -187 -678 10 -234 66 -396 178
-508 100 -99 203 -133 384 -124 185 9 307 65 424 194 l58 65 32 -16 c17 -9 31
-19 31 -22 0 -2 -16 -37 -36 -77 -132 -264 -336 -399 -624 -414 -335 -18 -613
162 -739 479 -78 194 -92 476 -36 693 44 168 119 299 240 420 125 125 234 184
405 221 84 17 292 11 375 -11z"/>
</g>
</svg>
